<?xml version="1.0" encoding="UTF-8"?>
<!-- Generator: visioncortex VTracer 0.6.5 -->
<svg version="1.1" xmlns="http://www.w3.org/2000/svg" width="902" height="605" viewBox="0 0 902 605" role="img" aria-label="Cheddar">
<path d="M0,0 L168,0 L168,2 L160,9 L-67,236 L-72,241 L-84,254 L-88,256 L-90,260 L-179,349 L-184,354 L-196,367 L-200,372 L-200,543 L-207,551 L-261,605 L-263,605 L-264,342 L-264,278 L-256,270 L-249,262 L-238,251 L-231,243 L-221,233 L-214,225 L-200,211 L-193,203 L-182,192 L-175,184 L-165,174 L-158,166 L-144,152 L-137,144 L-127,134 L-120,126 L-108,114 L-101,106 L-86,91 L-79,83 L-69,73 L-62,65 L-53,56 L-46,48 L-33,35 L-26,27 L-12,13 L-5,5 Z " fill="#f88a3d" transform="translate(734,0)"/>
<path d="M0,0 L168,0 L176,8 L183,16 L195,28 L202,36 L216,50 L223,58 L233,68 L240,76 L251,87 L258,95 L269,106 L276,114 L290,128 L290,130 L292,130 L292,132 L294,132 L301,140 L312,151 L319,159 L329,169 L336,177 L346,187 L353,195 L363,205 L370,213 L383,226 L390,234 L400,244 L407,252 L418,263 L425,271 L431,277 L431,516 L430,605 L423,599 L368,544 L367,370 L334,337 L334,335 L332,335 L326,328 L321,323 L207,209 L200,201 L10,11 L2,4 Z " fill="#f88a3d" transform="translate(0,0)"/>
<path d="M0,0 L106,0 L118,11 L129,20 L143,33 L151,40 L161,49 L169,56 L180,66 L191,75 L206,89 L217,98 L221,101 L229,94 L239,85 L250,76 L264,63 L272,56 L286,44 L298,33 L306,26 L321,13 L333,2 L336,0 L442,0 L441,3 L435,8 L428,16 L403,41 L396,49 L373,72 L366,80 L348,98 L341,106 L320,127 L313,135 L296,152 L289,160 L270,179 L263,187 L246,204 L239,212 L221,230 L216,225 L190,199 L183,191 L160,168 L153,160 L134,141 L127,133 L108,114 L101,106 L85,90 L78,82 L57,61 L50,53 L27,30 L20,22 L0,2 Z " fill="#feb51f" transform="translate(230,0)"/>
<path d="M0,0 L3,1 L8,7 L13,12 L147,146 L152,152 L157,157 L240,240 L241,242 L241,338 L238,338 L226,326 L221,320 L213,313 L6,106 L0,101 Z " fill="#c33c00" transform="translate(76,153)"/>
<path d="M0,0 L3,0 L3,99 L-138,240 L-141,243 L-143,243 L-145,247 L-155,256 L-235,336 L-237,338 L-238,337 L-238,240 L-174,176 L-169,171 L-157,158 L-50,51 L-44,44 L-37,38 L-31,31 L-23,24 L-19,19 L-14,14 L-10,10 L-8,10 L-7,7 L-2,2 Z " fill="#c33c00" transform="translate(823,154)"/>
<path d="M0,0 L168,0 L167,3 L3,3 L0,2 Z " fill="#e26b1b" transform="translate(0,0)"/>
<path d="M0,0 L2,0 L0,4 L-51,55 L-52,52 Z " fill="#e26b1b" transform="translate(855,44)"/>
<path d="M0,0 L2,1 L0,5 L-34,39 L-37,37 L-29,30 L-21,21 L-13,14 L-9,9 L-4,4 Z " fill="#c33c00" transform="translate(813,164)"/>
</svg>
